<svg width="199" height="260" viewBox="0 0 199 260" fill="none" xmlns="http://www.w3.org/2000/svg">
<path d="M51.2 91.6L50.8 68H24.6C24.4667 78 24.4 85.4667 24.4 90.4L31.3 91.3C31.3 94.0333 30.5333 96.9333 29 100H4.7L3.8 94.5C7.53333 92.9667 10.3333 92 12.2 91.6C12.2 91.4 11.9 73.7667 11.3 38.7L3 36.1L3.8 30H29.7C30.7667 31.8 31.4 34.4333 31.6 37.9C28.2 38.4333 25.9667 38.7667 24.9 38.9C24.7667 47.5667 24.7 54.0667 24.7 58.4H50.6L50.3 38.7L42 36.1L42.8 30H68.7C69.7667 31.8 70.4 34.4333 70.6 37.9C67.2 38.4333 64.9667 38.7667 63.9 38.9L63.4 90.4L70.3 91.3C70.3 94.0333 69.5333 96.9333 68 100H43.7L42.8 94.5C46.5333 92.9667 49.3333 92 51.2 91.6ZM141.567 101.2L139.367 101.1C138.967 100.367 138.434 99 137.767 97C137.101 95 136.734 93.5 136.667 92.5C136.334 85.9 135.967 74.4667 135.567 58.2H128.567L128.867 52.5C130.401 51.4333 132.234 50.4667 134.367 49.6L142.467 36.8C145.067 37.0667 147.101 37.7667 148.567 38.9L148.467 48.4C152.667 48.5333 156.567 48.9333 160.167 49.6C160.167 52.2667 159.334 55.1333 157.667 58.2H148.367C148.101 72.2 147.934 82.7 147.867 89.7C150.534 89.9667 154.167 90.7333 158.767 92L158.667 97.2C157.534 97.9333 155.001 98.8 151.067 99.8C147.201 100.733 144.034 101.2 141.567 101.2ZM29.4 220.4C37.1333 220.4 41 217.1 41 210.5C41 207.7 39.5333 205.333 36.6 203.4C34.4667 201.933 31.5333 200.367 27.8 198.7C24.1333 196.967 21.3667 195.6 19.5 194.6C17.7 193.6 15.6 192.2 13.2 190.4C8.6 186.867 6.3 182.467 6.3 177.2C6.3 171.933 8.33333 167.567 12.4 164.1C16.5333 160.567 22.1 158.8 29.1 158.8C36.1 158.8 43.5667 161.033 51.5 165.5C51.5 170.3 51 175.5 50 181.1C47.8667 181.767 44.7 182.1 40.5 182.1L37.6 170.2C35.1333 169.467 32.4333 169.1 29.5 169.1C26.5667 169.1 24.3 169.733 22.7 171C21.1 172.267 20.3 174.167 20.3 176.7C20.3 179.167 21.5333 181.4 24 183.4C26.5333 185.333 29.5667 187.133 33.1 188.8C36.6333 190.4 39.0667 191.533 40.4 192.2C41.7333 192.867 43.4333 193.867 45.5 195.2C47.5667 196.533 49.1333 197.8 50.2 199C52.9333 202.2 54.3 205.767 54.3 209.7C54.3 216.633 52 221.967 47.4 225.7C42.8 229.433 36.8 231.3 29.4 231.3C25.4667 231.3 21.1333 230.633 16.4 229.3C11.7333 227.9 7.76667 226.133 4.5 224C4.63333 219.933 5.16667 214.433 6.1 207.5C8.76667 206.967 11.9667 206.7 15.7 206.7L17.8 218.7C21.4667 219.833 25.3333 220.4 29.4 220.4ZM92.3242 231.2C88.4576 231.2 84.3909 229.933 80.1242 227.4C79.9909 234.467 79.9242 239.8 79.9242 243.4L87.7242 244.3C87.7242 247.233 86.9576 250.133 85.4242 253H60.5242L59.6242 247.5C63.8909 245.9 66.8909 244.9 68.6242 244.5L66.7242 189C63.5909 188.733 60.9576 188.233 58.8242 187.5C58.8242 185.033 59.0576 182.633 59.5242 180.3C62.3242 179.7 68.5242 179.167 78.1242 178.7C78.6576 179.567 79.2576 181.033 79.9242 183.1C86.8576 179.7 91.4242 178 93.6242 178C100.224 178 105.124 180.333 108.324 185C111.524 189.6 113.124 195.8 113.124 203.6C113.124 211.4 111.324 217.967 107.724 223.3C104.191 228.567 99.0576 231.2 92.3242 231.2ZM80.7242 191.9L80.3242 217.2C81.8576 218.6 83.6576 219.833 85.7242 220.9C87.8576 221.9 89.6576 222.4 91.1242 222.4C96.9909 222.4 99.9242 216.767 99.9242 205.5C99.9242 201.3 99.4909 197.933 98.6242 195.4C97.8242 192.867 96.8576 191.1 95.7242 190.1C94.6576 189.033 93.3909 188.5 91.9242 188.5C88.9909 188.5 85.2576 189.633 80.7242 191.9ZM178.579 231.2L176.379 231.1C175.979 230.367 175.446 229 174.779 227C174.112 225 173.746 223.5 173.679 222.5C173.346 215.9 172.979 204.467 172.579 188.2H165.579L165.879 182.5C167.412 181.433 169.246 180.467 171.379 179.6L179.479 166.8C182.079 167.067 184.112 167.767 185.579 168.9L185.479 178.4C189.679 178.533 193.579 178.933 197.179 179.6C197.179 182.267 196.346 185.133 194.679 188.2H185.379C185.112 202.2 184.946 212.7 184.879 219.7C187.546 219.967 191.179 220.733 195.779 222L195.679 227.2C194.546 227.933 192.012 228.8 188.079 229.8C184.212 230.733 181.046 231.2 178.579 231.2Z" fill="black"/>
<path d="M124.322 68.9364C119.218 55.8039 101.046 55.0958 105.435 36.0086C105.76 34.5924 104.232 33.498 102.997 34.2383C91.1965 41.1265 82.712 54.9349 89.8312 73.0242C90.4163 74.5049 88.6609 75.8889 87.3931 74.9233C81.5092 70.5136 80.8916 64.1727 81.4117 59.6342C81.6068 57.9605 79.3962 57.1558 78.4535 58.5399C76.243 61.8874 74 67.2949 74 75.4383C75.2353 93.4633 90.6113 98.9995 96.1376 99.7076C104.037 100.705 112.586 99.257 118.73 93.6886C125.492 87.4764 127.962 77.5627 124.322 68.9364ZM94.1546 85.1267C98.8357 84.0002 101.241 80.6527 101.891 77.6914C102.964 73.0886 98.7707 68.5824 101.599 61.308C102.672 67.327 112.229 71.093 112.229 77.6592C112.489 85.8027 103.582 92.7873 94.1546 85.1267Z" fill="black"/>
<path d="M165.322 198.936C160.218 185.804 142.046 185.096 146.435 166.009C146.76 164.592 145.232 163.498 143.997 164.238C132.196 171.126 123.712 184.935 130.831 203.024C131.416 204.505 129.661 205.889 128.393 204.923C122.509 200.514 121.892 194.173 122.412 189.634C122.607 187.96 120.396 187.156 119.454 188.54C117.243 191.887 115 197.295 115 205.438C116.235 223.463 131.611 229 137.138 229.708C145.037 230.705 153.586 229.257 159.73 223.689C166.492 217.476 168.962 207.563 165.322 198.936ZM135.155 215.127C139.836 214 142.241 210.653 142.891 207.691C143.964 203.089 139.771 198.582 142.599 191.308C143.672 197.327 153.229 201.093 153.229 207.659C153.489 215.803 144.582 222.787 135.155 215.127Z" fill="black"/>
</svg>